<svg xmlns="http://www.w3.org/2000/svg" xmlns:xlink="http://www.w3.org/1999/xlink" viewBox="0 0 436.21 308.43"><defs><linearGradient id="New_Gradient_Swatch_4" data-name="New Gradient Swatch 4" x1="102.76" y1="38.87" x2="358.59" y2="294.7" gradientTransform="rotate(90 218.105 154.215)" gradientUnits="userSpaceOnUse"><stop offset="0" stop-color="#2f3393"/><stop offset=".49" stop-color="#302f7c"/><stop offset="1" stop-color="#ab268d"/></linearGradient><linearGradient id="New_Gradient_Swatch_4-2" data-name="New Gradient Swatch 4" x1="166.83" y1="-6.22" x2="271.8" y2="98.75" xlink:href="#New_Gradient_Swatch_4"/><linearGradient id="New_Gradient_Swatch_4-3" data-name="New Gradient Swatch 4" x1="152.76" y1="-27.2" x2="248.42" y2="68.45" xlink:href="#New_Gradient_Swatch_4"/><linearGradient id="New_Gradient_Swatch_4-4" data-name="New Gradient Swatch 4" x1="187.51" y1="201.39" x2="405.35" y2="302.33" xlink:href="#New_Gradient_Swatch_4"/><linearGradient id="New_Gradient_Swatch_4-5" data-name="New Gradient Swatch 4" x1="162.82" y1="201.55" x2="369.28" y2="297.21" xlink:href="#New_Gradient_Swatch_4"/><linearGradient id="New_Gradient_Swatch_4-6" data-name="New Gradient Swatch 4" x1="1.49" y1="-16.64" x2="293.49" y2="275.37" xlink:href="#New_Gradient_Swatch_4"/><linearGradient id="New_Gradient_Swatch_4-7" data-name="New Gradient Swatch 4" x1="-70.29" y1="-99.53" x2="260.78" y2="231.54" gradientTransform="rotate(6.86 116.877 71.274)" xlink:href="#New_Gradient_Swatch_4"/><linearGradient id="New_Gradient_Swatch_4-8" data-name="New Gradient Swatch 4" x1="98.71" y1="147.03" x2="104.18" y2="152.5" xlink:href="#New_Gradient_Swatch_4"/><linearGradient id="New_Gradient_Swatch_4-9" data-name="New Gradient Swatch 4" x1="44.34" y1="124.71" x2="52.79" y2="133.16" xlink:href="#New_Gradient_Swatch_4"/><linearGradient id="New_Gradient_Swatch_4-10" data-name="New Gradient Swatch 4" x1="-35.29" y1="-12.1" x2="60.11" y2="83.3" xlink:href="#New_Gradient_Swatch_4"/><linearGradient id="New_Gradient_Swatch_4-11" data-name="New Gradient Swatch 4" x1="121.6" y1="48.71" x2="317.49" y2="244.6" xlink:href="#New_Gradient_Swatch_4"/><linearGradient id="New_Gradient_Swatch_4-12" data-name="New Gradient Swatch 4" x1="168.27" y1="166.75" x2="176.93" y2="175.41" xlink:href="#New_Gradient_Swatch_4"/><linearGradient id="New_Gradient_Swatch_4-13" data-name="New Gradient Swatch 4" x1="239.48" y1="199.07" x2="247.07" y2="206.65" xlink:href="#New_Gradient_Swatch_4"/><linearGradient id="linear-gradient" x1="317.73" y1="34.12" x2="412.71" y2="34.12" gradientUnits="userSpaceOnUse"><stop offset="0" stop-color="#2f3393"/><stop offset=".46" stop-color="#ab268d"/><stop offset="1" stop-color="#ef5f7a"/></linearGradient><linearGradient id="linear-gradient-2" x1="326.26" y1="-.87" x2="396.87" y2="-.87" gradientUnits="userSpaceOnUse"><stop offset="0" stop-color="#ab268d"/><stop offset="1" stop-color="#ef5f7a"/></linearGradient><linearGradient id="linear-gradient-3" x1="322.26" y1="55.8" x2="411.69" y2="55.8" xlink:href="#linear-gradient-2"/><linearGradient id="linear-gradient-4" x1="317.78" y1="31.89" x2="412.64" y2="31.89" xlink:href="#linear-gradient-2"/><linearGradient id="linear-gradient-5" x1="319.66" y1="13.08" x2="409.53" y2="13.08" xlink:href="#linear-gradient-2"/><linearGradient id="linear-gradient-6" x1="317.83" y1="39.44" x2="412.67" y2="39.44" xlink:href="#linear-gradient-2"/><linearGradient id="linear-gradient-7" x1="206.46" y1="283.84" x2="257.63" y2="283.84" gradientTransform="rotate(76.86 232.044 283.859)" gradientUnits="userSpaceOnUse"><stop offset="0" stop-color="#6f2c90"/><stop offset="1" stop-color="#ab268d"/></linearGradient><linearGradient id="linear-gradient-8" x1="224.29" y1="276.32" x2="233.29" y2="291.91" xlink:href="#linear-gradient-7"/><linearGradient id="linear-gradient-9" x1="239.07" y1="262.07" x2="243.57" y2="269.86" xlink:href="#linear-gradient-7"/><linearGradient id="linear-gradient-10" x1="225.09" y1="293.52" x2="233.96" y2="308.9" xlink:href="#linear-gradient-7"/><linearGradient id="linear-gradient-11" x1="207.71" y1="272.21" x2="213.23" y2="281.76" xlink:href="#linear-gradient-7"/><linearGradient id="linear-gradient-12" x1="248.92" y1="271.01" x2="256.02" y2="283.29" xlink:href="#linear-gradient-7"/><linearGradient id="linear-gradient-13" x1="225.64" y1="267.4" x2="229.49" y2="274.07" xlink:href="#linear-gradient-7"/><linearGradient id="linear-gradient-14" x1="247.23" y1="292.45" x2="250.9" y2="298.82" xlink:href="#linear-gradient-7"/><linearGradient id="linear-gradient-15" x1="221.47" y1="260.4" x2="224.95" y2="266.42" xlink:href="#linear-gradient-7"/><linearGradient id="linear-gradient-16" x1="405.85" y1="198.63" x2="448.51" y2="198.63" xlink:href="#linear-gradient-2"/><linearGradient id="linear-gradient-17" x1="427.19" y1="195.52" x2="427.19" y2="212.75" xlink:href="#linear-gradient-2"/><linearGradient id="linear-gradient-18" x1="429.6" y1="214.91" x2="429.6" y2="219.96" xlink:href="#linear-gradient-2"/><linearGradient id="linear-gradient-19" x1="420.82" y1="180.09" x2="420.82" y2="187.34" xlink:href="#linear-gradient-2"/><linearGradient id="linear-gradient-20" x1="433.28" y1="182.04" x2="433.28" y2="196.57" xlink:href="#linear-gradient-2"/><linearGradient id="linear-gradient-21" x1="196.4" y1="58.77" x2="226.47" y2="58.77" gradientTransform="rotate(76.8 211.445 58.781)" gradientUnits="userSpaceOnUse"><stop offset="0" stop-color="#6f2c90"/><stop offset="1" stop-color="#606bf1"/></linearGradient><linearGradient id="linear-gradient-22" x1="211.46" y1="42.56" x2="214.43" y2="47.7" xlink:href="#linear-gradient-21"/><linearGradient id="linear-gradient-23" x1="205.36" y1="45.84" x2="207.88" y2="50.2" xlink:href="#linear-gradient-21"/><linearGradient id="linear-gradient-24" x1="207.72" y1="56.85" x2="209.38" y2="59.71" xlink:href="#linear-gradient-21"/><linearGradient id="linear-gradient-25" x1="200.36" y1="54.43" x2="202.02" y2="57.29" xlink:href="#linear-gradient-21"/><linearGradient id="linear-gradient-26" x1="215.58" y1="48.92" x2="217.23" y2="51.78" xlink:href="#linear-gradient-21"/><linearGradient id="linear-gradient-27" x1="215.94" y1="55.23" x2="218.46" y2="59.59" xlink:href="#linear-gradient-21"/><linearGradient id="linear-gradient-28" x1="216.39" y1="71.25" x2="217.26" y2="72.77" xlink:href="#linear-gradient-21"/><linearGradient id="linear-gradient-29" x1="201.12" y1="60.99" x2="203.63" y2="65.35" xlink:href="#linear-gradient-21"/><linearGradient id="linear-gradient-30" x1="223.38" y1="51.31" x2="225.03" y2="54.17" xlink:href="#linear-gradient-21"/><linearGradient id="linear-gradient-31" x1="218.76" y1="64.19" x2="222.08" y2="69.94" xlink:href="#linear-gradient-21"/><linearGradient id="linear-gradient-32" x1="205.96" y1="69.02" x2="209.12" y2="74.5" xlink:href="#linear-gradient-21"/><linearGradient id="linear-gradient-33" x1="211.28" y1="63.17" x2="212.94" y2="66.03" xlink:href="#linear-gradient-21"/><linearGradient id="linear-gradient-34" x1="350.57" y1="121.84" x2="375.08" y2="121.84" gradientTransform="rotate(76.79 362.818 121.827)" xlink:href="#linear-gradient-2"/><linearGradient id="linear-gradient-35" x1="354.26" y1="131.67" x2="368.04" y2="131.67" xlink:href="#linear-gradient-2"/><linearGradient id="linear-gradient-36" x1="356.93" y1="110.71" x2="361.66" y2="110.71" xlink:href="#linear-gradient-2"/><linearGradient id="linear-gradient-37" x1="357.84" y1="126.59" x2="371.63" y2="126.59" xlink:href="#linear-gradient-2"/><linearGradient id="linear-gradient-38" x1="361.66" y1="114.41" x2="373.48" y2="114.41" xlink:href="#linear-gradient-2"/><linearGradient id="linear-gradient-39" x1="367.29" y1="121" x2="375.08" y2="121" xlink:href="#linear-gradient-2"/><linearGradient id="linear-gradient-40" x1="350.57" y1="122.49" x2="360.14" y2="122.49" xlink:href="#linear-gradient-2"/><linearGradient id="linear-gradient-41" x1="351.77" y1="115.82" x2="361.66" y2="115.82" xlink:href="#linear-gradient-2"/><clipPath id="clippath"><rect x="63.89" y="-63.89" width="308.43" height="436.21" rx="8.84" ry="8.84" transform="rotate(-90 218.105 154.215)" style="fill:none"/></clipPath><style>.cls-3,.cls-4{fill:#250323}.cls-3,.cls-5{mix-blend-mode:screen}.cls-19{fill:#24181d}.cls-22{fill:#d84774}.cls-60{fill:#e6e7e8;mix-blend-mode:multiply}</style></defs><g style="isolation:isolate"><g id="katman_2" data-name="katman 2"><g id="OBJECTS"><g style="clip-path:url(#clippath)"><rect x="63.89" y="-63.89" width="308.43" height="436.21" rx="8.84" ry="8.84" transform="rotate(-90 218.105 154.215)" style="fill:url(#New_Gradient_Swatch_4)"/><path d="M114.9-15.96c20.38 25.15 32.23 29.77 39.44 28.64 2.12-.33 9.77-2.09 13.62 1.88 2.14 2.21 1.27 4.3 3.29 6.57 3.59 4.04 9.63 1.1 16.43 2.35 10.18 1.87 9.39 10.77 22.07 18.31 9.07 5.39 11.02 1.76 24.88 7.51 15.2 6.3 20.3 13.75 23.01 11.74 3.3-2.46.44-17.15-8.45-22.54-5.62-3.41-11.95-2.06-13.62-6.1-1.27-3.07 1.75-5.4.47-8.92-1.39-3.81-6.27-4.8-9.39-6.1-10.69-4.48-13.94-18.31-15.96-22.54-4.42-9.22-24.48-17.37-95.78-10.8Z" style="fill:url(#New_Gradient_Swatch_4-2)"/><path d="M258.25 51.87c-1.28-4.92-4.31-10.48-9.08-13.37-5.62-3.41-11.95-2.06-13.62-6.1-1.27-3.07 1.75-5.4.47-8.92-1.39-3.81-6.27-4.8-9.39-6.1-10.69-4.48-13.94-18.31-15.96-22.54-4.16-8.68-22.2-16.41-83.84-11.8 17.6 20.34 28.2 24.21 34.85 23.16 2.12-.33 9.77-2.09 13.62 1.88 2.14 2.21 1.27 4.3 3.29 6.57 3.59 4.04 9.63 1.1 16.43 2.35 10.18 1.87 9.39 10.77 22.07 18.31 9.07 5.39 11.02 1.76 24.88 7.51 7.67 3.18 12.76 6.65 16.28 9.05Z" style="fill:url(#New_Gradient_Swatch_4-3)"/><path d="M457.63 292.96c-8.22 3.1-19.95 5.87-30.52.94-5.58-2.6-5.84-5.02-10.8-8.45-17.31-11.96-33.3 4.27-52.11-5.16-13.17-6.61-10.97-17.38-25.82-22.54-9.47-3.28-11.91.56-24.41-.94-25.26-3.03-38.07-21.43-42.72-17.37-2.91 2.53-.74 12.17 4.69 15.96 4.32 3.01 7.67.22 11.27 2.82 6.78 4.89-.26 18.36 5.63 24.88 5.17 5.72 15.49.78 26.76.47 25.38-.69 36.77 22.63 59.16 34.27 14.75 7.67 39.25 12.86 80.75-2.35l-1.88-22.54Z" style="fill:url(#New_Gradient_Swatch_4-4)"/><path d="M378.75 317.85c13.04 6.78 33.7 11.61 66.98 2.14l.15-9.27c-8.49 2.26-20.43 3.86-30.46-2.09-5.29-3.14-5.31-5.58-9.91-9.48-16.04-13.62-33.56.95-51.34-10.31-12.45-7.88-9.19-18.39-23.46-24.99-9.09-4.21-11.9-.63-24.2-3.36-18.63-4.14-29.43-16.19-35.79-20.45-2.09 3.19.13 11.83 5.2 15.37 4.32 3.01 7.67.22 11.27 2.82 6.78 4.89-.26 18.36 5.63 24.88 5.17 5.72 15.49.78 26.76.47 25.38-.69 36.77 22.63 59.16 34.27Z" style="fill:url(#New_Gradient_Swatch_4-5)"/><path d="M-63.04 0C-17.11-1.62.22 9.52 7.38 20.42c4.84 7.36 7.37 18.16 17.61 21.83 9.38 3.37 15.95-2.58 26.76 2.11 7.1 3.09 6.62 6.67 13.38 11.27 13.14 8.93 23.49 1.16 39.44 5.63 16.58 4.65 14.29 15.54 33.1 26.76 24.57 14.65 36.75 1.01 52.11 13.38 21.08 16.98 5.18 48.37 27.47 64.09 9.6 6.77 13.57 1.66 37.32 11.62 15.49 6.5 16.9 9.97 31.34 16.9 29.96 14.38 51.93 12.88 51.76 16.2-.18 3.45-24.19 9.87-46.83 2.11-12.77-4.38-14.12-9.5-25.7-10.56-14.53-1.34-23.74 5.68-30.28 0-4.25-3.69-1.81-7.91-7.04-12.32-5.32-4.49-9.67-1.66-16.2-5.99-6.01-3.98-5.09-8.21-9.51-11.97-7.64-6.51-16.97.52-31.34 0-23.99-.87-25.95-21.45-51.06-22.54-11.96-.52-18.56 3.85-26.76-1.41-7.39-4.74-5.64-10.6-11.97-16.2-12.76-11.29-29.26 4.24-44.72-4.58-15.59-8.89-9.87-31-28.87-41.55-5.7-3.16-11.28-3.98-14.79-4.23L-63.04 0Z" style="fill:url(#New_Gradient_Swatch_4-6)"/><path d="M-49.97-46.48c45.79 3.89 61.67 17.02 67.48 28.7C21.43-9.89 22.65 1.13 32.38 6c8.91 4.46 16.14-.66 26.32 5.3 6.69 3.91 5.77 7.42 11.94 12.79 11.98 10.43 23.18 3.96 38.48 10.31 15.91 6.6 12.33 17.14 29.66 30.52 22.64 17.48 36.37 5.39 50.14 19.51 18.9 19.38-.63 48.64 19.61 66.91 6.03 5.44 14.28 6.24 21.6 9.13 5.95 2.35 11.09 5.81 16.75 8.71 5.89 3.02 12.03 5.73 17.22 9.92 3.75 3.03 7.86 4.3 12.08 6.77 1.68.99 3.17 1.74 3.76 3.73-2.55 3.24-11.16-.5-14.37-1.04-6.56-1.1-12.16-.86-18.64.17-6.25.99-10.93.08-16.16-3.45-4.7-3.17-6.93-7.36-12.47-9.88-5.64-2.56-12.75-2.84-17.52-6.9-5.49-4.67-4.07-8.76-8.01-13.02-6.8-7.37-16.91-1.51-31.11-3.74-23.71-3.73-23.2-24.4-48-28.48-11.81-1.94-18.89 1.6-26.4-4.6-6.77-5.59-4.34-11.2-9.95-17.51-11.32-12.73-29.56.71-43.85-9.89-14.42-10.69-6.09-31.96-23.7-44.7-5.28-3.82-10.72-5.3-14.18-5.96l-45.55-87.08Z" style="fill:url(#New_Gradient_Swatch_4-7)"/><path d="M99.71 149.02c-1.37-.06-2.66-.05-3.89 0 3.49 1.4 6.83 1.27 10.62.84-2.05-.44-4.27-.74-6.72-.84Z" style="fill:url(#New_Gradient_Swatch_4-8)"/><path d="M39.44 128.24c5.74 2.11 11.58 1.4 17.27.41-5.35-2.41-11.21-1.5-17.27-.41Z" style="fill:url(#New_Gradient_Swatch_4-9)"/><path d="M-12.62 20.5c4.84 7.36 7.37 18.16 17.61 21.83 9.38 3.37 15.95-2.58 26.76 2.11 7.1 3.09 6.62 6.67 13.38 11.27 10.85 7.37 19.81 3.36 31.58 4.26-3.76-.43-7.54-1.59-11.58-4.34-6.76-4.59-6.28-8.18-13.38-11.27-10.81-4.7-17.38 1.25-26.76-2.11-10.24-3.67-12.77-14.47-17.61-21.83C.22 9.52-17.11-1.62-63.04 0l.17.25c31.11 1.82 44.25 11.12 50.25 20.25Z" style="fill:url(#New_Gradient_Swatch_4-10)"/><path d="M285.91 194.02c-14.44-6.93-15.85-10.41-31.34-16.9-23.75-9.96-27.72-4.85-37.32-11.62-22.28-15.72-6.38-47.1-27.47-64.09-15.36-12.37-27.55 1.27-52.11-13.38-18.81-11.22-16.52-22.11-33.1-26.76-10.45-2.93-18.49-.61-26.49-1.17 2.07.22 4.22.61 6.49 1.24 16.58 4.65 14.29 15.54 33.1 26.76 24.57 14.65 36.75 1.01 52.11 13.38 21.08 16.98 5.18 48.37 27.47 64.09 9.6 6.77 13.57 1.66 37.32 11.62 15.49 6.5 16.9 9.97 31.34 16.9 29.96 14.38 51.93 12.88 51.76 16.2-.08 1.63-5.52 3.93-13.63 5.08 17.89 2.32 33.48-2.38 33.63-5.15.17-3.32-21.8-1.81-51.76-16.2Z" style="fill:url(#New_Gradient_Swatch_4-11)"/><path d="M163.18 170.42c2.28.58 4.78.96 7.59 1.06 3.73.14 7.12-.24 10.24-.75-4.92-3.32-10.59-1.67-17.83-.31Z" style="fill:url(#New_Gradient_Swatch_4-12)"/><path d="M245.14 201.84c-3.62-.33-6.9-.15-9.9.23 3.93 3.07 8.81 1.86 15.19.69-1.53-.41-3.25-.73-5.29-.92Z" style="fill:url(#New_Gradient_Swatch_4-13)"/><g class="cls-5"><path class="cls-22" d="m293.15 80.9.6 1.1 1.1.61-1.1.6-.6 1.1-.6-1.1-1.11-.6 1.11-.61.6-1.1zM389.48 177.54l.6 1.1 1.1.6-1.1.6-.6 1.11-.6-1.11-1.1-.6 1.1-.6.6-1.1zM254.39 160.06l.6 1.1 1.1.6-1.1.6-.6 1.1-.6-1.1-1.1-.6 1.1-.6.6-1.1zM401.4 273.25l.61 1.1 1.1.6-1.1.6-.61 1.1-.6-1.1-1.1-.6 1.1-.6.6-1.1zM380.36 147.77l.32.59.59.32-.59.32-.32.59-.32-.59-.59-.32.59-.32.32-.59zM356.53 275.34l.32.59.59.32-.59.32-.32.59-.32-.59-.58-.32.58-.32.32-.59zM302.33 239.92l.32.59.59.32-.59.32-.32.59-.32-.59-.59-.32.59-.32.32-.59zM388.56 145.58l.32.59.59.32-.59.32-.32.58-.32-.58-.59-.32.59-.32.32-.59zM376.27 37.02l.32.59.59.32-.59.32-.32.59-.32-.59-.59-.32.59-.32.32-.59zM304.05 276.46l.32.59.59.32-.59.32-.32.59-.32-.59-.59-.32.59-.32.32-.59zM302.37 123.78l.32.59.58.32-.58.32-.32.59-.33-.59-.58-.32.58-.32.33-.59zM244.68 46.24l.32.59.59.32-.59.32-.32.59-.32-.59-.59-.32.59-.32.32-.59zM291.46 23.72l.33.59.58.32-.58.32-.33.59-.32-.59-.58-.32.58-.32.32-.59zM252.63 134.98l.32.59.59.32-.59.32-.32.59-.32-.59-.59-.32.59-.32.32-.59zM291.1 204.25l.33.59.58.32-.58.32-.33.59-.32-.59-.58-.32.58-.32.32-.59z"/></g><g class="cls-5"><path class="cls-22" d="m63.97 70.68.61 1.1 1.1.61-1.1.6-.61 1.1-.6-1.1-1.1-.6 1.1-.61.6-1.1zM160.31 167.32l.6 1.1 1.1.6-1.1.6-.6 1.11-.61-1.11-1.1-.6 1.1-.6.61-1.1zM25.22 149.84l.6 1.1 1.1.6-1.1.6-.6 1.1-.61-1.1-1.1-.6 1.1-.6.61-1.1zM172.23 263.03l.6 1.1 1.1.6-1.1.6-.6 1.1-.6-1.1-1.1-.6 1.1-.6.6-1.1zM151.19 137.55l.32.59.58.32-.58.32-.32.59-.32-.59-.59-.32.59-.32.32-.59zM127.36 265.12l.32.59.59.32-.59.32-.32.59-.32-.59-.59-.32.59-.32.32-.59zM73.15 229.7l.32.59.59.32-.59.32-.32.59-.32-.59-.59-.32.59-.32.32-.59zM159.38 135.36l.32.59.59.32-.59.32-.32.58-.32-.58-.59-.32.59-.32.32-.59zM147.1 26.8l.32.59.59.32-.59.32-.32.59-.32-.59-.59-.32.59-.32.32-.59zM74.87 266.24l.33.59.58.32-.58.32-.33.59-.32-.59-.58-.32.58-.32.32-.59zM73.19 113.56l.32.59.59.32-.59.32-.32.59-.32-.59-.59-.32.59-.32.32-.59zM15.5 36.02l.32.59.59.32-.59.32-.32.59-.32-.59-.59-.32.59-.32.32-.59zM62.29 13.5l.32.59.59.32-.59.32-.32.59-.32-.59-.59-.32.59-.32.32-.59zM23.45 124.76l.32.59.59.32-.59.32-.32.59-.32-.59-.59-.32.59-.32.32-.59zM61.93 194.03l.32.59.59.32-.59.32-.32.59-.32-.59-.59-.32.59-.32.32-.59z"/></g><g class="cls-5"><path class="cls-4" d="M367.66 155.73c-11.39 0-23.29-.68-35.39-2.06-31.78-3.63-61.17-11.63-82.73-22.53-22.01-11.13-33.35-24.08-31.94-36.45 1.41-12.37 15.38-22.43 39.33-28.32 23.47-5.77 53.9-6.95 85.68-3.32 31.78 3.63 61.16 11.63 82.73 22.53 22.01 11.13 33.35 24.08 31.94 36.45-1.41 12.37-15.38 22.43-39.33 28.32-14.54 3.57-31.74 5.39-50.29 5.39Zm-60.45-91.75c-18.3 0-35.25 1.78-49.56 5.3-22.32 5.49-35.83 14.87-37.07 25.75-1.24 10.88 9.81 23.06 30.32 33.43 21.25 10.75 50.27 18.64 81.71 22.23 31.44 3.59 61.49 2.43 84.62-3.25 22.32-5.49 35.83-14.87 37.07-25.75 1.24-10.88-9.81-23.06-30.32-33.43-21.25-10.75-50.27-18.64-81.71-22.23-11.99-1.37-23.78-2.05-35.06-2.05Z"/><path class="cls-4" d="M361.96 140.43c-8.92 0-18.32-.52-27.99-1.63-52.39-5.98-93.21-26.69-90.99-46.18 1.08-9.48 12.01-17.25 30.78-21.86 18.68-4.59 42.93-5.53 68.27-2.64 52.39 5.98 93.21 26.69 90.99 46.18-1.81 15.89-31.69 26.13-71.06 26.13Zm-48.17-73.45c-14.73 0-28.39 1.44-39.92 4.27-18.55 4.56-29.34 12.17-30.4 21.43-2.19 19.21 38.43 39.68 90.55 45.63 52.12 5.95 96.3-4.85 98.5-24.06 2.19-19.21-38.43-39.68-90.55-45.62-9.63-1.1-19.11-1.64-28.18-1.64Z"/><path class="cls-4" d="M356.77 128.96c-6.83 0-14.06-.41-21.53-1.26-41.15-4.69-71.96-20.86-70.14-36.8 1.82-15.94 35.48-24.75 76.63-20.05 41.15 4.69 71.96 20.86 70.14 36.8-1.49 13.04-24.3 21.31-55.09 21.31Zm-36.69-55.38c-30.01 0-49.91 8.1-51.01 17.78-1.35 11.81 25.1 27.63 66.62 32.37 41.52 4.74 70.85-4.72 72.2-16.53 1.35-11.81-25.1-27.63-66.62-32.37-7.49-.85-14.59-1.25-21.19-1.25Z"/><path class="cls-4" d="M351.14 115.44c-4.59 0-9.43-.27-14.41-.84-13.07-1.49-25.15-4.78-34.01-9.26-8.93-4.52-13.54-9.73-12.98-14.67s6.23-8.98 15.95-11.37c9.64-2.37 22.15-2.85 35.23-1.36 27.07 3.09 48.15 13.82 46.99 23.93-.94 8.25-16.41 13.57-36.77 13.57Zm-24.79-37.85c-7.58 0-14.61.74-20.54 2.2-9.5 2.34-15.04 6.22-15.57 10.94-.54 4.72 3.98 9.75 12.71 14.17 8.81 4.45 20.83 7.73 33.84 9.21 26.79 3.06 49.5-2.46 50.62-12.29 1.12-9.83-19.76-20.32-46.55-23.38-4.96-.57-9.84-.85-14.51-.85Z"/><path class="cls-4" d="M346.11 104.75c-2.64 0-5.4-.16-8.2-.48-18.51-2.11-27.82-9.17-27.18-14.74.38-3.34 3.88-5.99 9.85-7.45 5.48-1.35 12.57-1.63 19.96-.78 18.51 2.11 27.82 9.17 27.18 14.74-.38 3.34-3.88 5.99-9.85 7.45-3.41.84-7.43 1.26-11.76 1.26Zm-13.79-20.94c-4.08 0-7.85.4-11.03 1.18-4.53 1.11-7.36 2.94-7.58 4.88-.46 4.02 9.51 9.7 24.54 11.42 7.04.8 13.75.55 18.9-.72 4.53-1.11 7.36-2.94 7.58-4.88.46-4.02-9.51-9.7-24.54-11.42-2.7-.31-5.34-.46-7.87-.46Z"/></g><g class="cls-5"><path class="cls-19" d="M15.85 333.38c-5.22 0-10.24-.21-15.01-.65-24.06-2.2-39.02-9.77-42.13-21.3-3.11-11.54 6.02-25.6 25.71-39.6 19.59-13.93 47.32-26.16 78.08-34.46 30.76-8.3 60.88-11.66 84.82-9.47 24.06 2.2 39.02 9.77 42.13 21.3 6.39 23.68-40.17 56.9-103.79 74.06-24.63 6.64-48.85 10.12-69.81 10.12ZM132.3 227.99c-20.89 0-45.04 3.47-69.61 10.1-30.68 8.27-58.32 20.47-77.84 34.35-19.42 13.8-28.44 27.58-25.42 38.79 3.02 11.21 17.75 18.58 41.48 20.75 23.85 2.18 53.88-1.17 84.56-9.45 63.22-17.05 109.54-49.86 103.26-73.14-3.02-11.21-17.75-18.58-41.48-20.75-4.75-.43-9.75-.65-14.94-.65Z"/></g><g class="cls-5"><path class="cls-19" d="M26.1 319.8c-25.73 0-44-6.55-47.32-18.88-5.45-20.2 31.58-47.17 84.31-61.39 52.73-14.22 98.29-9.53 103.74 10.67 5.45 20.2-31.58 47.17-84.31 61.39-20.54 5.54-40 8.21-56.42 8.21Zm93.46-84.36c-16.21 0-35.52 2.59-55.43 7.95-48.87 13.18-86.19 39.05-81.49 56.49 4.7 17.44 49.97 21.04 98.84 7.85 48.87-13.18 86.19-39.05 81.49-56.48-2.79-10.33-19.82-15.81-43.41-15.81Z"/></g><g class="cls-5"><path class="cls-19" d="M36.63 303.5c-18.76 0-32.22-4.59-34.55-13.23-3.86-14.3 24.24-34.36 62.63-44.71 38.39-10.35 72.76-7.14 76.62 7.16 3.86 14.3-24.24 34.36-62.63 44.71-15.2 4.1-29.77 6.07-42.07 6.07Zm70.31-63.54c-12.27 0-26.86 1.98-42.1 6.09-38.12 10.28-66.06 30.06-62.28 44.1 3.78 14.03 37.88 17.09 76.01 6.8 38.12-10.28 66.06-30.06 62.28-44.1-2.27-8.42-15.47-12.89-33.9-12.89Z"/></g><g class="cls-5"><path class="cls-19" d="M46.88 292.31c-2.21 0-4.33-.09-6.35-.28-10.75-.98-17.5-4.59-19-10.15-1.5-5.56 2.52-12.07 11.32-18.32 8.26-5.87 19.91-11.02 32.81-14.5 12.9-3.48 25.56-4.89 35.65-3.96 10.75.98 17.5 4.59 19 10.15 2.95 10.94-16.44 25.35-44.13 32.82-10.32 2.78-20.48 4.24-29.3 4.24Zm48.06-43.49c-8.45 0-18.25 1.41-28.23 4.1-12.45 3.36-23.65 8.29-31.53 13.9-7.23 5.14-10.79 10.25-9.78 14.02 1.02 3.77 6.67 6.4 15.5 7.21 9.63.88 21.79-.48 34.24-3.84 12.45-3.36 23.65-8.29 31.53-13.9 7.23-5.14 10.79-10.25 9.78-14.02-1.02-3.77-6.67-6.4-15.5-7.21-1.91-.17-3.92-.26-6.01-.26Z"/></g><g class="cls-5"><path class="cls-19" d="M56.79 277.44c-7.19 0-12.37-1.78-13.27-5.11-.73-2.7 1.38-5.98 5.93-9.21 4.49-3.19 10.83-5.99 17.87-7.89 7.04-1.9 13.93-2.67 19.41-2.17 5.56.51 9.03 2.28 9.76 4.98.73 2.7-1.38 5.98-5.93 9.21-4.48 3.19-10.83 5.99-17.87 7.89-5.74 1.55-11.24 2.29-15.9 2.29Zm26.5-24.02c-4.75 0-10.25.79-15.84 2.3-6.98 1.88-13.27 4.66-17.71 7.81-4.37 3.11-6.41 6.19-5.74 8.67 1.41 5.22 14.22 6.33 28.56 2.46 6.98-1.88 13.27-4.66 17.71-7.81 4.37-3.11 6.41-6.19 5.74-8.67-.67-2.49-3.98-4.13-9.32-4.61-1.08-.1-2.21-.15-3.4-.15Z"/></g><g><g class="cls-5"><path class="cls-19" d="M316.69 350.7c-3.73 0-6.76-1.01-8.93-3.05-10.37-9.72 2.35-40.22 28.37-67.99 26.02-27.76 55.63-42.44 66.01-32.72 10.37 9.72-2.35 40.22-28.37 67.99-12.57 13.41-26.32 24.2-38.72 30.4-7.15 3.57-13.38 5.37-18.35 5.37Zm76.49-106.07c-13.48 0-36.06 13.73-56.5 35.55-25.74 27.46-38.48 57.49-28.41 66.93 4.83 4.53 14.22 3.66 26.43-2.44 12.33-6.16 26-16.9 38.51-30.24 25.74-27.46 38.48-57.48 28.41-66.93-2.07-1.94-4.95-2.86-8.44-2.86Z"/></g><g class="cls-5"><path class="cls-19" d="M322.13 339.74c-3.36 0-6.15-.91-8.2-2.83-4.62-4.33-4.61-12.79.03-23.82 4.38-10.42 12.41-22.14 22.61-33.02 10.2-10.88 21.38-19.65 31.49-24.7 10.71-5.35 19.15-5.91 23.77-1.57 4.62 4.33 4.61 12.79-.03 23.82-4.38 10.42-12.41 22.14-22.61 33.02-16.96 18.1-35.39 29.1-47.06 29.1Zm61.38-84.85c-3.59 0-8.27 1.37-13.66 4.06-9.7 4.84-20.48 13.32-30.36 23.86-9.88 10.54-17.64 21.85-21.84 31.84-3.89 9.24-4.25 16.29-.98 19.35 6.47 6.06 27.94-2.98 49.6-26.09 9.88-10.54 17.64-21.85 21.84-31.84 3.89-9.24 4.25-16.29.98-19.35-1.3-1.22-3.2-1.82-5.59-1.82Z"/></g><g class="cls-5"><path class="cls-19" d="M327.97 325.91c-2.21 0-4.03-.58-5.34-1.82-6.27-5.88 1.41-24.29 17.12-41.05 15.71-16.76 33.58-25.61 39.85-19.74 3.07 2.88 2.95 8.75-.32 16.54-3.25 7.71-9.21 16.42-16.79 24.51-12.42 13.25-26.19 21.56-34.51 21.56Zm46.2-63.96c-8.12 0-21.74 8.29-34.07 21.44-15.52 16.56-23.21 34.66-17.14 40.34 6.07 5.69 23.63-3.16 39.15-19.72 7.54-8.05 13.47-16.7 16.7-24.36 3.19-7.58 3.35-13.26.44-15.98-1.25-1.17-2.98-1.72-5.08-1.72Z"/></g><g class="cls-5"><path class="cls-19" d="M334 316.38c-1.93 0-3.61-.55-4.9-1.76-2.7-2.53-2.77-7.27-.21-13.36 2.3-5.47 6.51-11.62 11.84-17.3 10.05-10.72 23.93-19.13 29.85-13.59 5.92 5.55-1.57 19.94-11.62 30.66-7.85 8.38-18.04 15.34-24.94 15.34Zm31.61-43.77c-4.29 0-12.9 4.4-21.97 14.08-5.02 5.35-8.95 11.08-11.07 16.12-1.78 4.24-2.07 7.64-.74 8.89 2.58 2.42 13.04-1.5 24.19-13.4 11.15-11.9 14.39-22.59 11.81-25.01-.48-.45-1.24-.68-2.22-.68Z"/></g><g class="cls-5"><path class="cls-19" d="M339.64 303.47c-.89 0-1.62-.24-2.16-.74-1.21-1.14-1.18-3.42.08-6.43 1.23-2.93 3.5-6.24 6.38-9.32 6.1-6.51 12.82-9.79 15.29-7.47 2.47 2.32-.37 9.24-6.47 15.75-4.78 5.1-9.93 8.21-13.13 8.21Zm17.47-24.2c-3.01 0-8.22 3.16-12.8 8.05-2.84 3.03-5.07 6.29-6.29 9.17-1.16 2.76-1.24 4.9-.2 5.87 2.19 2.06 8.87-1.36 14.59-7.45 5.71-6.09 8.68-12.98 6.49-15.04-.43-.41-1.05-.6-1.79-.6Z"/></g></g><circle class="cls-3" cx="365.22" cy="34.12" r="64.72"/><circle class="cls-3" cx="365.22" cy="34.12" r="59.34"/><circle class="cls-3" cx="365.22" cy="34.12" r="51.28"/><path d="M412.63 31.48c-.04-.65-.09-1.31-.15-1.95-.03-.36-.08-.71-.12-1.07l-.12-.98c-.06-.46-.14-.92-.21-1.38-.03-.18-.06-.36-.1-.54-.1-.54-.2-1.07-.31-1.6a46.966 46.966 0 0 0-5.17-13.42c-8.19-14.29-23.57-23.93-41.22-23.93-11.46 0-21.97 4.06-30.17 10.81-.77.63-1.51 1.29-2.23 1.97-.15.14-.3.28-.44.42-.68.65-1.35 1.33-1.99 2.02-.02.02-.04.04-.06.07-.73.79-1.43 1.6-2.1 2.44 0 0 0 .01-.01.02a47.17 47.17 0 0 0-10.12 24.07c-.11.92-.2 1.85-.25 2.79a45.364 45.364 0 0 0 .1 7.02c.49 5.71 2 11.13 4.33 16.09.45.96.94 1.9 1.46 2.83.01.02.03.05.04.07.5.89 1.02 1.76 1.57 2.61.03.04.06.09.09.13a48.69 48.69 0 0 0 3.78 5.04c2.91 3.38 6.28 6.35 10.02 8.81.73.48 1.47.94 2.23 1.38.03.02.07.04.1.06a47.237 47.237 0 0 0 23.68 6.33c5.47 0 10.72-.94 15.61-2.64.78-.27 1.55-.56 2.31-.87h.01a47.56 47.56 0 0 0 19.09-14.25c.48-.6.95-1.22 1.41-1.84 0 0 0-.01.01-.02a47.492 47.492 0 0 0 3.67-5.92c.97-1.86 1.83-3.78 2.55-5.77.34-.94.64-1.9.93-2.87l.15-.54a47.48 47.48 0 0 0 1.75-12.76c0-.88-.03-1.76-.08-2.63Z" style="fill:url(#linear-gradient)"/><g><path d="M326.26 6.98c.53-.01 1.05-.02 1.58-.04 4-.14 7.32-2.02 10.82-3.37.71-.27 1.42-.47 2.15-.61 1.19-.23 2.34-.52 3.48-.9 2.86-.95 5.74-1.94 8.69-2.16 1.46-.15 2.96.03 4.37-.29 1.58-.33 3.12.2 4.69.18 4.06-.05 8.31-.59 12.62-.71 1.99-.06 4.33-1.81 6.24-.55.81.55 1.44 1.39 2.39 1.51 1.3.15 2.62.22 3.95.23 1.05 0 1.98.24 3.02.36 2.27.29 4.51-1.07 6.62-1.92a47.456 47.456 0 0 0-6.27-4.73c-3.71-.11-7.47-.33-11.25-.81-4.13-.53-8.26-1.9-12.64-1.9-2.41 0-4.85.28-7.29.6-2.2.28-4.38.03-6.64-.05-3.08-.09-6.26 1.04-8.7 2.95-1.93 1.52-4.14 2.34-6.44 2.46-.87.04-1.72.12-2.57.21-3.35 2.76-6.3 5.97-8.79 9.54Z" style="fill:url(#linear-gradient-2)"/><path d="M404.3 57.08c-.85.27-1.7.46-2.57.6-1.4.25-2.8.47-4.19.81-1.75.42-3.51.87-5.28 1.26-1.78.36-3.58.58-5.38.7-1.79.1-3.63.06-5.4.33-1.96.33-3.89-.11-5.82.04-5.01.24-10.03 1.25-15.08 1.53-1.16.08-2.41.6-3.66.93-1.25.29-2.5.4-3.62-.25-.95-.55-1.66-1.42-2.74-1.57l-4.44-.53c-.87-.09-1.64-.31-2.44-.54.35-.07.7-.14 1.05-.19 1.68-.26 3.32-.65 4.93-1.14 4.06-1.24 8.05-2.72 12.12-3.64 2.02-.46 4.12-.73 6.06-1.43 2.14-.78 4.36-.76 6.49-1.28 5.51-1.35 10.87-3.25 16.4-4.14 2.51-.41 5.43-2.41 8-1.16 1.08.54 1.88 1.4 3.07 1.56l4.97.61c1.09.12 2.06.41 3.08.7.74-2.06 1.35-4.18 1.81-6.36-4.99-.92-10.09-1.58-15.35-1.8-5.95-.27-12.04-.47-17.8.85-3.18.73-6.23 1.79-9.27 2.79-2.74.9-5.53 1.18-8.36 1.59-3.86.56-7.76 2.13-11 4.3a16.244 16.244 0 0 1-8.58 2.75l-5.12.18c-2.01.06-3.98.58-5.98.35-1.81-.24-3.68-.58-5.46-.72-.85-.06-1.68.01-2.5.15 1.83 3.88 4.17 7.46 6.93 10.67 2.12.97 4.22 1.16 6.51.99 1.44-.14 2.82.14 4.22.4 2.53.46 5.08.84 7.63 1.2l7.69.8 7.65.9c2.56.34 5.13.46 7.7.3 1.42-.09 2.83-.23 4.24-.39l4.21-.65c2.53-.38 5.03-.04 7.61-.02 1.76.04 3.58-.17 5.36-.6 1.77-.43 3.48-1.23 5.03-2.13 1.22-.73 2.51-1.28 3.84-1.64.45-.13.91-.24 1.37-.34 1.94-2.41 3.65-5.02 5.09-7.79-.99.37-2 .72-3.03 1.02Z" style="fill:url(#linear-gradient-3)"/><path d="M329.35 40.38c.79-.26 1.58-.43 2.39-.55.8-.15 1.6-.25 2.42-.33 5.9-.55 11.67-1.82 17.39-2.97 5.68-1.13 11.45-1.6 16.91-3 1.51-.36 3-.78 4.5-1.21 1.49-.4 2.98-.78 4.48-1.16 1.35-.35 2.71-.39 4.07-.45 1.36-.06 2.72.04 4.08.13.93.06 1.87.03 2.82 0 .94 0 1.9-.07 2.85-.19 1.91-.31 3.79-.54 5.63-1.11 2.91-.89 6.08-.58 9.01.37 1.69.56 3.39 1.06 5.18 1.49.52.12 1.04.21 1.57.28-.13-2.63-.49-5.21-1.03-7.71-1.25-.05-2.53-.12-3.83-.23-1.03-.09-2.05-.25-3.07-.46-1.66-.35-3.36-.59-5.12-.69-2.22-.08-4.45-.04-6.66-.05-1.1.06-2.2.11-3.31.13-1.1.01-2.2.02-3.29.08-2.16.06-4.42-.09-6.53.4-2.35.46-4.66.29-6.96.71-5.93 1.12-11.53 3.36-17.09 5.2-2.57.85-5.04 3.46-7.9 2.95-1.21-.21-2.26-.81-3.49-.62-1.69.27-3.37.64-5.03.94-1.32.25-2.52.26-3.82.32-1.56.04-3.08.56-4.61 1.18-1.52.55-3.05 1.18-4.57 1.52-1.15.24-2.3.34-3.46.45-1.16.11-2.32.17-3.47.1l-1.63-.08c.06 1.63.2 3.23.42 4.81 1.16.02 2.32.2 3.42.37 2.69.4 5.19.26 7.74-.64Z" style="fill:url(#linear-gradient-4)"/><path d="M321.15 20.76c3.44.29 6.87.37 10.3.15 5.17-.34 9.14-2.74 13.39-4.38.86-.34 1.72-.59 2.59-.78 1.42-.29 2.79-.66 4.15-1.04 3.41-1 6.91-1.75 10.28-1.29 1.66.2 3.29.81 5.04 1.03 1.95.25 3.66 1.34 5.64 1.88 2.56.7 5.4 1.23 8.29 1.39 2.86.16 5.68.03 8.43-.15 2.58-.17 5.25-2.21 7.76-1.24 1.07.41 1.96 1.17 3.13 1.13 1.6-.05 3.19-.18 4.75-.36 1.24-.14 2.35-.03 3.57 0 .35 0 .7-.01 1.05-.06-.87-2.25-1.9-4.41-3.09-6.48-4.06.28-8.07.66-12.02.66-5.06 0-9.86-1.11-14.43-1.89-2.56-.43-5.31-.92-8.2-1.48-2.6-.5-5.09-1.6-7.98-2.31-3.99-.98-8.54-.15-11.82 1.81-2.62 1.52-5.37 2.5-8.2 2.83-1.62.19-3.21.45-4.78.75-1.86.35-3.58 1.2-5.43 1.34-1.69.14-3.41.13-5.02.36-1.96.29-3.57 1.4-5.42 2.28-.48.23-.94.24-1.39.14-.81 1.84-1.5 3.74-2.07 5.69.5-.01 1-.01 1.49.03Z" style="fill:url(#linear-gradient-5)"/><path d="M351.25 4.42c.31-.03.7-.19.89-.25.95-.38 1.89-.61 2.87-.9.75-.23 1.52-.4 2.3-.56.71-.14 1.43-.34 2.17-.34 1.68-.01 3.34.21 4.97.53 2.41.49 4.8.65 7.28 1.09.5.09.99.2 1.48.34.79.22 1.58.41 2.4.58 2.06.41 4.14.83 6.21 1.24 1.03.21 2.07.53 3.12.59 1.16.09 2.24.43 3.38.51 2.96.28 5.95.04 8.88-.22 1.36-.11 2.82-.87 4.18-.62.58.12 1.05.34 1.69.27l.84-.09c-.48-.68-.99-1.35-1.5-2-.8.08-1.61.14-2.41.18-2.81.15-5.6-.11-8.38-.19-1.54 0-3.08-.06-4.62-.14-1.39-.13-2.71-.43-4.04-.82-1.83-.46-3.88-.79-5.8-.8-1.51-.01-3.07-.32-4.52-.82-.83-.29-1.67-.55-2.53-.79-1.02-.28-2.09-.37-3.11-.65-.94-.25-1.95-.51-2.94-.61-1.22-.12-2.34.15-3.48.43-.79.2-1.48-.1-2.27-.11-.29 0-.58.09-.87.13-.44.05-.88.1-1.3.22-.64.17-1.28.37-1.9.62-.72.26-1.64.65-2.17 1.19-.24.26-.39.51-.67.75-.37.34-1.12 1.34-.12 1.25Zm-5.26 21.36c1.13-.32 2.29-1.23 3.5-1.08.51.06.94.26 1.48.18.74-.12 1.48-.23 2.22-.35.58-.1 1.11-.11 1.68-.13 1.37-.07 2.75-.75 4.11-.98 2.04-.37 4.11-.3 6.15-.21.38.04.76.08 1.14.11.25.02.49-.03.74-.06.31-.02.62.01.93.04.49.04.99.07 1.47.17.8.16 1.59.33 2.38.49.41.08.7.09 1.08-.09.14-.07.34-.14.45-.25.1-.11.07-.13-.01-.25-.08-.1-.13-.15-.16-.28-.03-.12-.03-.21-.1-.31-.28-.39-.95-.63-1.41-.78-.59-.18-1.22-.22-1.84-.31-1-.13-2.09-.11-3.07-.31-.91-.15-1.71-.17-2.63.03-.97.17-2.06.19-3.04.09a8.688 8.688 0 0 0-3.33.29c-.68.2-1.38.25-2.09.33-2.55.22-5.07.68-7.58 1.12-2.49.44-5.01.69-7.44 1.33-1.34.35-2.66.77-3.98 1.16-1.2.34-2.4.45-3.64.58-1.68.19-3.46.68-4.99 1.38-1.21.55-2.58.83-3.91.83h-2.28c-.9 0-1.8.17-2.7.08-.34-.04-.69-.07-1.04-.1-.11.92-.2 1.85-.25 2.79 2.1.11 4.11-.27 6.15-.61.45-.08.9-.15 1.35-.19.74-.06 1.46-.17 2.18-.32 1.82-.36 3.63-.83 5.46-1.13.9-.16 1.84-.24 2.72-.51.98-.28 1.96-.31 2.92-.54 2.5-.59 4.92-1.47 7.37-2.18Zm22.59 49.68c-1.92-.14-3.75-.51-5.65-.82-2.59-.43-5.49-.55-8.06-.3-2.04.2-4.18.15-6.24-.07-1.18-.14-2.36-.23-3.56-.3-1.42-.08-2.85.03-4.26-.04-.52-.03-1.05-.06-1.59-.08 1.49.98 3.04 1.87 4.64 2.68 1.37-.07 2.74-.13 4.14-.14.69 0 1.37 0 2.05.06 1.1.08 2.2.13 3.31.18 2.79.1 5.62.23 8.41.58 1.38.17 2.79.42 4.19.52 1.55.1 2.99.46 4.5.62 3.44.37 6.92.51 10.38.63 1.56-.54 3.09-1.16 4.57-1.86-3.49-.31-6.96-.88-10.46-1.18-2.12-.16-4.24-.31-6.36-.47Zm43.87-39.95c-1 .09-1.99.07-3 .01-3.63-.22-7.28-.36-10.93-.52-3.62-.17-7.25-.48-10.9-.32-2.02.15-4.02.31-6.03.61-.9.13-1.8.16-2.7.24-.89.07-1.8.14-2.71.21-1.25.06-2.54.37-3.8.7-.63.17-1.26.34-1.86.57-.6.24-1.18.5-1.73.76-1.76.81-3.65 1.51-5.52 2.05-1.08.3-2.13.63-3.19.99-1.25.42-2.45 1-3.71 1.35-1.15.32-2.36.62-3.5.97-1.4.43-2.55 1.08-3.84 1.65-.9.4-1.77.22-2.69.26-.33.02-.67.13-1.02.16-.51.06-1.02.07-1.53.14-.77.09-1.53.16-2.3.18-.89.04-2.03-.03-2.89.09-.4.07-.73.16-1.18.16-.57.01-2.21.05-1.14.78.35.24.92.42 1.19.49 1.39.38 2.76.63 4.22.66 1.11.01 2.22-.04 3.32-.19 1-.14 1.98-.39 2.96-.54 2.25-.32 4.46-.8 6.64-1.38 3.22-.85 5.98-2.35 8.91-3.6.59-.25 1.19-.47 1.79-.67.98-.31 1.94-.65 2.92-.94 1.23-.37 2.46-.82 3.72-1.12 1.27-.29 2.54-.59 3.82-.78 1.28-.15 2.6-.24 3.87-.48 1.42-.2 2.79-.14 4.18-.27 3.63-.22 7.28-.64 10.94-.73 1.69-.07 3.61-.66 5.27-.24.71.18 1.25.47 2.04.52 1.09.06 2.17.11 3.26.14.86.02 1.62.13 2.45.21 1.55.15 3.19-.09 4.78-.24.04-.64.07-1.27.09-1.92-.08 0-.15 0-.23.02Z" style="fill:url(#linear-gradient-6)"/></g><path class="cls-60" d="M412.63 31.48c-.04-.65-.09-1.31-.15-1.95-.03-.36-.08-.71-.12-1.07l-.12-.98c-.06-.46-.14-.92-.21-1.38-.03-.18-.06-.36-.1-.54-.1-.54-.2-1.07-.31-1.6a46.966 46.966 0 0 0-5.17-13.42 47.776 47.776 0 0 0-14.86-15.92c.61.91 1.2 1.85 1.75 2.81a48.15 48.15 0 0 1 3.09 6.48c.86 2.24 1.56 4.55 2.08 6.94.12.53.22 1.06.31 1.6.03.18.06.36.1.54.08.46.15.91.21 1.38.05.32.08.65.12.98.04.36.09.71.12 1.07.06.65.11 1.3.15 1.95.05.87.08 1.75.08 2.63 0 4.42-.62 8.7-1.75 12.76l-.15.54c-.28.97-.58 1.93-.93 2.87-.72 1.99-1.58 3.92-2.55 5.77-.72 1.38-1.51 2.72-2.36 4.02-.42.64-.86 1.28-1.31 1.9 0 0 0 .01-.01.02-.45.63-.92 1.24-1.41 1.84a47.56 47.56 0 0 1-19.09 14.25h-.01a47.448 47.448 0 0 1-17.92 3.51c-8.63 0-16.71-2.31-23.68-6.33-.03-.02-.07-.04-.1-.06-.76-.44-1.5-.9-2.23-1.38-.12-.08-.23-.16-.34-.24 1.06 1.58 2.2 3.1 3.43 4.54 2.91 3.38 6.28 6.35 10.02 8.81.73.48 1.47.94 2.23 1.38.03.02.07.04.1.06a47.237 47.237 0 0 0 23.68 6.33c5.47 0 10.72-.94 15.61-2.64.78-.27 1.55-.56 2.31-.87h.01a47.56 47.56 0 0 0 19.09-14.25c.48-.6.95-1.22 1.41-1.84 0 0 0-.01.01-.02a47.492 47.492 0 0 0 3.67-5.92c.97-1.86 1.83-3.78 2.55-5.77.34-.94.64-1.9.93-2.87l.15-.54a47.48 47.48 0 0 0 1.75-12.76c0-.88-.03-1.76-.08-2.63Z"/><g><path class="cls-3" d="M232.04 320.86c-20.41 0-37.02-16.61-37.02-37.02s16.61-37.02 37.02-37.02 37.02 16.61 37.02 37.02-16.61 37.02-37.02 37.02Z"/><path class="cls-3" d="M232.04 315.72c-17.58 0-31.88-14.3-31.88-31.88s14.3-31.88 31.88-31.88 31.88 14.3 31.88 31.88-14.3 31.88-31.88 31.88Z"/><path class="cls-3" d="M232.04 313.25c-16.22 0-29.41-13.19-29.41-29.41s13.19-29.41 29.41-29.41 29.41 13.19 29.41 29.41-13.19 29.41-29.41 29.41Z"/><circle cx="232.04" cy="283.84" r="25.59" transform="rotate(-76.86 232.069 283.844)" style="fill:url(#linear-gradient-7)"/><path d="M217.94 286.89c1.69-.15 4.11.37 4.74 2.02.24.61-.06 1.51.47 1.98.7.62 2.4.27 3.17-.13 2.18-1.15 3.84-4.3 6.63-4.18 1.25.05 2.52.65 3.83.69 2.08.07 4.54.02 6.38-1.07 1.9-1.12 1.81-3.84 1.95-5.83-.44.86-.78 1.82-1.48 2.52-1.34 1.34-2.8.86-4.54.76-5.17-.31-10.29-.11-15.4-.89-1.06-.16-1.8.09-2.8.28-1 .19-3.85.69-4.69-.06-.52-.47-.03-.93-.77-1.13-1.51-.41-2.84 2.25-3.51 3.18.32.39-.24.74-.1 1.52.11.64 1.11 1.7 1.73 1.87 1.59.44 2.95-1.41 4.39-1.54Z" style="fill:url(#linear-gradient-8)"/><path d="M240.79 265.9c-.47.46-1.32.25-1.75.77-.68.82.11 1.54-.36 2.37-.64 1.13-2.05 1.33-2.3 2.84 1.96.65 3.55-.98 5.36-1.6.68-.23 1.62-.22 2.2-.65.52-.39.77-1.61 1.34-2.05 1.24-.97 2.72-.67 3.39-2.27.1-.23.17-.48.23-.73a25.785 25.785 0 0 0-6.77-4.28c.04 1.27-.15 2.56-.6 3.73-.15.41-.41 1.55-.73 1.86Z" style="fill:url(#linear-gradient-9)"/><path d="M237.37 304.63c2.92-.84 7.48 0 8.22-4.07-.75.07-2.11.03-2.78.36-.91.44-.98 1.5-2.3 1.64-1.82.19-3.9-.46-5.73-.6-1.24-.1-2.47.06-3.69.12-2.16.1-2.82-.82-4.05-2.47-1.16-1.56-2.4-.96-4.22-.72-1.92.26-3.8-.16-5.72.01-1.38.13-1.97.77-3.15 1.38-.38.19-.78.31-1.21.38 2.19 2.51 4.85 4.58 7.85 6.09 2.79.35 5.49.45 8.34.07 1.09-.14 2.17-.06 3.27-.15 1.97-.16 3.35-1.5 5.15-2.02Z" style="fill:url(#linear-gradient-10)"/><path d="M209.21 284.04c1.55-1.21.04-1.87.04-3.34 0-.98.86-1.51 1.47-2.1 1.83-1.77 4.24-3.76 6.91-3.78-.32-.37-.45-1.13-.8-1.33-.47-.27-1.33-.02-1.87-.19-.6-.19-1.06-.7-1.65-.91-1.26-.47-2.38-.04-3.26-1.34-.03-.04-.06-.1-.09-.14-2.23 3.8-3.51 8.21-3.51 12.93 0 .31.01.61.02.92.96.12 1.99-.13 2.73-.71Z" style="fill:url(#linear-gradient-11)"/><path d="M252.41 273.66c.13.29-.07.75.02 1.07.11.39.47.7.62 1.06.44 1.07-.19 2.3.2 3.26.28.68 1 .7 1.16 1.39.4 1.67-2.02 3.32-2.58 4.73 1.66 0 2.69-1.1 3.82-2.12 1.5-1.36.41-1.73.4-3.65 0-.93.32-1.46.77-1.93-.81-3.16-2.22-6.09-4.09-8.65-.21.36-.48.71-.79 1.01-.68.67-1.26.76-1.17 1.63.11.99 1.32 1.49 1.63 2.21Z" style="fill:url(#linear-gradient-12)"/><path d="M225.51 268.38c-1.48.48-5.26 1.49-6.08 3.05.67.23 1.2 1 2.06 1.22 1.63.43 2.96-1.61 4.69-.48 1.01.66.26 1.32 1.58 1.62 1.76.4 4.66-1.19 5.79-2.42 1.08-1.18 2.25-3.04.21-3.69-2.43-.78-5.92-.06-8.25.69Z" style="fill:url(#linear-gradient-13)"/><path d="M256.93 289.76c-1.37 1.62-3.26 2.55-5.86 2.5-1.58-.03-1.65-.3-2.86.75-.6.53-1.16 1.17-1.79 1.66-.66.51-1.53.9-2.36 1.08-.84.17-1.89-.15-2.68.12-.96.33-1.4 1.49-2.31 1.85.53 2.18 4.66.13 5.96.25 1.24.12 2.46.65 3.73.56 1.79-.13 3.7-.53 5.2-1.49 1.34-2.23 2.35-4.68 2.97-7.28Z" style="fill:url(#linear-gradient-14)"/><path d="M217.76 267.22c.68.13 1.49.02 2.14.04.69.02 1.33.15 2.02-.07.92-.28 1.24-.96 1.97-1.45.65-.43 1.4-.58 2.24-.66 1.6-.16 2.44-.35 3.02-2.07.33-1 1.45-2 1.24-2.97-.2-.9-.98-1.29-1.71-.62-.32.3-.21.96-.55 1.44-.76 1.06-2.35 1.42-3.52 1.68-1.11.25-1.73.12-2.78-.35-.5-.22-1.33-.47-2.09-.79-1.71.94-3.3 2.07-4.74 3.36.22 1.15 1.09 2.13 2.78 2.45Z" style="fill:url(#linear-gradient-15)"/></g><g><circle class="cls-3" cx="427.18" cy="198.63" r="28.75"/><g class="cls-5"><path class="cls-4" d="M427.18 231.39c-18.06 0-32.76-14.7-32.76-32.76s14.7-32.76 32.76-32.76 32.76 14.7 32.76 32.76-14.7 32.76-32.76 32.76Zm0-65.02c-17.79 0-32.26 14.47-32.26 32.26s14.47 32.26 32.26 32.26 32.26-14.47 32.26-32.26-14.47-32.26-32.26-32.26Z"/></g><g class="cls-5"><path class="cls-4" d="M427.18 236.84c-21.07 0-38.21-17.14-38.21-38.21s17.14-38.21 38.21-38.21 38.21 17.14 38.21 38.21-17.14 38.21-38.21 38.21Zm0-74.43c-19.97 0-36.21 16.25-36.21 36.21s16.25 36.21 36.21 36.21 36.21-16.25 36.21-36.21-16.25-36.21-36.21-36.21Z"/></g><circle cx="427.18" cy="198.63" r="21.33" style="fill:url(#linear-gradient-16)"/><path d="M448.48 198.03c-.52.09-.96-.05-1.79-.29-2.69-.75-3.1.27-4.31 2.54-1.43-.43-2.07.55-2.75 1.59-.59.91-1.12 2.43-1.97 3.11-1.21.97-3.24.1-4.84-.25-1.28-.28-2.41-.94-3.59-1.21-.8-.19-1.64.36-2.44.17-1.31-.31-2.58-2.93-4.07-1.81-1.02.76-1.01 2.46-2.65 2.57-2.18.15-2.38-2.74-3.66-3.89-.96-.86-2.17-.96-3.02-2.09-.29-.38-.45-1.31-.93-1.49-.65-.25-2.66 1-3.08 1.49-.77-.22-1.14-.94-1.71-1.46-.43-.39-.94-.66-1.32-1.1-.09-.11-.17-.24-.24-.39-.13.9-.22 1.82-.23 2.75.39.18.73.44 1.09 1.05.31.54 1.12 2.78 1.81 2.63 1.18-.25.85-2.47 2.57-2.14.63.12 1.36 1.25 1.68 1.85.52.96 1.34 2.11 1.76 3.1.61 1.43-.33 2.76.52 4.28.57 1.03 1.76 2.41 3.01 2.22.7-.1 1.23-1 1.9-1.12 1.18-.22 1.41.82 2.46 1.6 1.47 1.08 4.53 1.55 5.84.02.96-1.12 1.05-2.97 2.68-3.57 1.28-.47 2.22.8 3.42.73.88-.05.94-1 1.71-1.08 1.56-.14.87 2.04 2.17 2.07 2.52.06 2.58-3.95 4.16-4.96.54-.35 1.02-.1 1.48-.65.62-.74.62-1.58 1.45-2.35s.29-.61 1.57-.81c.41-.06.81-.1 1.22-.12.09-.79.14-1.59.14-2.41 0-.2-.02-.4-.03-.6Z" style="fill:url(#linear-gradient-17)"/><path d="m440.28 215.44-1-.12c-1.25-.14-3.43-.83-4.59-.04-.54.37-.53 1.45-1.27 1.81-1.14.55-3.29-.28-4.55-.23-1.48.05-3.55.58-4.99.25-1.64-.38-3.19-1.56-4.94-1.83 2.17 1.15 3.57 2.91 6.22 3.27.31.04.87-.23 1.11-.1.51.28.13.49.43.83.25.29.43.5.59.67 4.9-.02 9.41-1.71 13-4.51Z" style="fill:url(#linear-gradient-18)"/><path d="M412.31 187.34c1.58.05 3.06-1.38 4.67-1.55 1.62-.18 4.18 1.16 5.55.43 1.08-.58 1.12-1.98 2.55-2.46 1.39-.47 2.82-.46 4.19-1.09.75-.34 1.42-.82 2.17-1.17-1.13-.67-2.85.47-4.17.27-1.33-.2-1.86-.08-3.27 0-1.44.09-3.38.45-4.74.37-1.21-.07-1.99-.87-2.1-2.06-.17.01-.34 0-.51 0a21.501 21.501 0 0 0-6.47 5.68c.42.81.92 1.54 2.12 1.57Z" style="fill:url(#linear-gradient-19)"/><path d="M435.14 185.92c-1.23.88-1.53 2.93-2.72 3.54-1.07.54-2.37-.07-3.66.6-1.55.8-1.4 2.44-3.25 2.57-1.52.11-3.84-.52-5.01-1.34.02.52 1.08.95 1.53 1.33.48.41.79.85 1.41 1.11.81.34 2.86-.08 3.44.54.73.77.03 1 1.28 1.54 1.78.77 3.47 1.2 5.06.11 1.17-.79 2.13-1.21 3.35-1.83 1.56-.8 1.59-2.79 2.82-3.66.63-.44 1.16-.09 1.88-.08 1.47.02 2.82-.5 4.11-1.21.23-.13.46-.27.69-.41a21.486 21.486 0 0 0-5.5-6.7l-.53.5c-1.55 1.51-3.19 2.17-4.9 3.39Z" style="fill:url(#linear-gradient-20)"/></g></g><circle class="cls-3" cx="211.43" cy="58.77" r="18.58"/><g class="cls-5"><path class="cls-4" d="M211.43 79.87c-11.63 0-21.1-9.47-21.1-21.1s9.47-21.1 21.1-21.1 21.1 9.47 21.1 21.1-9.47 21.1-21.1 21.1Zm0-41.55c-11.28 0-20.45 9.18-20.45 20.45s9.18 20.45 20.45 20.45 20.45-9.18 20.45-20.45-9.18-20.45-20.45-20.45Z"/></g><g class="cls-5"><path class="cls-4" d="M211.43 82.4c-13.03 0-23.63-10.6-23.63-23.63s10.6-23.63 23.63-23.63 23.63 10.6 23.63 23.63-10.6 23.63-23.63 23.63Zm0-46.61c-12.67 0-22.98 10.31-22.98 22.98s10.31 22.98 22.98 22.98 22.98-10.31 22.98-22.98-10.31-22.98-22.98-22.98Z"/></g><circle cx="211.43" cy="58.77" r="15.04" transform="rotate(-76.8 211.45 58.767)" style="fill:url(#linear-gradient-21)"/><path d="M209.07 43.94c0 .09-.03.17-.03.27a3.82 3.82 0 0 0 3.82 3.82c1.95 0 3.53-1.46 3.77-3.34-1.62-.6-3.37-.94-5.19-.94-.81 0-1.59.08-2.36.2Z" style="fill:url(#linear-gradient-22)"/><path d="M209.14 48.02c0-1.39-1.13-2.52-2.52-2.52s-2.52 1.13-2.52 2.52 1.13 2.52 2.52 2.52 2.52-1.13 2.52-2.52Z" style="fill:url(#linear-gradient-23)"/><path d="M208.55 59.93c.91 0 1.65-.74 1.65-1.65s-.74-1.65-1.65-1.65-1.65.74-1.65 1.65.74 1.65 1.65 1.65Z" style="fill:url(#linear-gradient-24)"/><path d="M202.24 57.13c.7-.58.8-1.62.22-2.33-.58-.7-1.62-.8-2.33-.22-.7.58-.8 1.62-.22 2.33.58.7 1.62.8 2.33.22Z" style="fill:url(#linear-gradient-25)"/><path d="M217.46 51.62c.7-.58.8-1.62.22-2.33-.58-.7-1.62-.8-2.33-.22-.7.58-.8 1.62-.22 2.33.58.7 1.62.8 2.33.22Z" style="fill:url(#linear-gradient-26)"/><path d="M217.2 59.93c1.39 0 2.52-1.13 2.52-2.52s-1.13-2.52-2.52-2.52-2.52 1.13-2.52 2.52 1.13 2.52 2.52 2.52Z" style="fill:url(#linear-gradient-27)"/><path d="M217.2 71.04c-.91 0-1.65.74-1.65 1.65 0 .18.04.35.09.51 1.06-.31 2.08-.72 3.03-1.25-.27-.54-.82-.91-1.47-.91Z" style="fill:url(#linear-gradient-28)"/><path d="M204.89 63.17c0-1.39-1.13-2.52-2.52-2.52s-2.52 1.13-2.52 2.52 1.13 2.52 2.52 2.52 2.52-1.13 2.52-2.52Z" style="fill:url(#linear-gradient-29)"/><path d="M225.62 53.83c-.36-1.05-.84-2.04-1.42-2.97-.15.06-.3.14-.44.25-.7.58-.8 1.62-.22 2.33.52.62 1.39.77 2.07.39Z" style="fill:url(#linear-gradient-30)"/><path d="M224.33 66.47a3.8 3.8 0 0 0-3.66-2.79 3.82 3.82 0 0 0-.81 7.55 14.89 14.89 0 0 0 4.46-4.75Z" style="fill:url(#linear-gradient-31)"/><path d="M210.83 72.16c0-1.9-1.54-3.43-3.43-3.43-1.78 0-3.23 1.36-3.4 3.1 1.92 1.09 4.09 1.77 6.42 1.93.25-.48.41-1.02.41-1.6Z" style="fill:url(#linear-gradient-32)"/><path d="M213.76 64.6c0-.91-.74-1.65-1.65-1.65s-1.65.74-1.65 1.65.74 1.65 1.65 1.65 1.65-.74 1.65-1.65Z" style="fill:url(#linear-gradient-33)"/><g><path class="cls-3" d="M362.83 139.57c-9.78 0-17.73-7.95-17.73-17.73s7.95-17.73 17.73-17.73 17.73 7.95 17.73 17.73-7.95 17.73-17.73 17.73Z"/><circle cx="362.83" cy="121.84" r="12.25" transform="rotate(-76.79 362.815 121.838)" style="fill:url(#linear-gradient-34)"/><path d="M358.92 130.42c-1.7 0-3.29.07-4.65.18.97.95 2.1 1.73 3.34 2.32.43 0 .86.01 1.31.01 5.04 0 9.12-.56 9.12-1.25s-4.08-1.25-9.12-1.25Z" style="fill:url(#linear-gradient-35)"/><path d="M357.84 111.11c2.11 0 3.81-.18 3.81-.41 0-.19-1.25-.36-2.93-.4-.62.22-1.23.48-1.8.8.3 0 .6.01.92.01Z" style="fill:url(#linear-gradient-36)"/><path d="M364.74 125.93c-3.81 0-6.9.3-6.9.66s3.09.66 6.9.66 6.9-.3 6.9-.66-3.09-.66-6.9-.66Z" style="fill:url(#linear-gradient-37)"/><path d="M361.66 114.4c0 .78 4.91 1.41 10.97 1.41h.85a12.12 12.12 0 0 0-2.18-2.8c-5.43.08-9.64.68-9.64 1.4Z" style="fill:url(#linear-gradient-38)"/><path d="M374.95 120.18c-4.41.1-7.66.42-7.66.81s3.31.72 7.79.82c0-.55-.05-1.1-.12-1.63Z" style="fill:url(#linear-gradient-39)"/><path d="M360.14 122.49c0-1.29-3.84-2.34-8.59-2.34-.29 0-.57 0-.85.01-.08.55-.13 1.11-.13 1.68 0 1.03.14 2.02.38 2.98h.6c4.74 0 8.59-1.05 8.59-2.34Z" style="fill:url(#linear-gradient-40)"/><path d="M361.66 115.81c0-.35-3.74-.64-9.03-.76-.33.49-.61 1.01-.86 1.54 5.74-.11 9.89-.42 9.89-.78Z" style="fill:url(#linear-gradient-41)"/><path class="cls-60" d="M369.37 111.49c1.2 1.9 1.91 4.14 1.91 6.55 0 6.77-5.49 12.25-12.25 12.25-2.41 0-4.65-.71-6.55-1.91 2.17 3.43 5.99 5.7 10.34 5.7 6.77 0 12.25-5.49 12.25-12.25 0-4.36-2.28-8.17-5.7-10.34Z"/></g></g></g></g></svg>